<svg id="Layer_1" data-name="Layer 1" xmlns="http://www.w3.org/2000/svg" viewBox="0 0 241.49 80.02"><defs><style>.cls-1{fill:#ed1c24;}.cls-2{fill:#7d7e81;}.cls-3{fill:#808285;}</style></defs><path class="cls-1" d="M80.58,10a11.91,11.91,0,0,0-3.68-.61c-3.08,0-4.48,1.48-4.48,5l-.06,2.9h6.86l0,8.35H72.36l.06,24.94H62.25l0-25H57.15V17.29h5.11V14.51c0-8.83,3.94-13.31,13.64-13.31a24.22,24.22,0,0,1,5.35.53L80.58,10Z" transform="translate(-1.72 -1)"/><path class="cls-1" d="M103.05,26.68c-5.55-1.27-8.49,1.94-8.49,10.23V50.63H84.39V17.38h9.5a41.83,41.83,0,0,1-.47,5.89h.13c1.74-3.95,4.89-7,10-6.69l-.47,10.1Z" transform="translate(-1.72 -1)"/><path class="cls-1" d="M113.32,13.12a6.12,6.12,0,0,1-6.22-6,6.26,6.26,0,0,1,12.51,0,6.18,6.18,0,0,1-6.29,6Zm-5.08,37.5,0-33.33h10.14l.06,33.33Z" transform="translate(-1.72 -1)"/><path class="cls-2" d="M135.58,51.49a45.07,45.07,0,0,1-10-1.08l.58-10.4a32.12,32.12,0,0,0,10.26,1.8c4.12,0,7.08-1.73,7.08-5.2,0-8.3-19.43-4-19.43-20.37C124.1,7.07,131.25,1,143.46,1a49.59,49.59,0,0,1,8.88.87l-.65,9.75a31.65,31.65,0,0,0-8.67-1.3c-4.69,0-6.86,2-6.86,4.77,0,7.58,19.43,4.69,19.43,19.93,0,9.47-7.58,16.47-20,16.47Z" transform="translate(-1.72 -1)"/><path class="cls-2" d="M179.06,50.63a31.67,31.67,0,0,1,.27-5h-.07c-1.6,3.48-5.55,5.75-10.16,5.75-6.36,0-9.7-3.74-9.7-9.09,0-8.43,8.16-12.45,18.73-12.45V28.55c0-2.74-1.54-4.08-6-4.08a22.89,22.89,0,0,0-9.7,2.41l-.8-8.43a42.39,42.39,0,0,1,12-1.94c11.44,0,14.65,4.28,14.65,11.91V42.73c0,2.41.07,5.29.27,7.9Zm-.93-14.32c-7.36,0-9.1,2-9.1,4.42,0,1.67,1.2,2.87,3.34,2.87,3.41,0,5.76-3.07,5.76-6.35v-.94Z" transform="translate(-1.72 -1)"/><path class="cls-2" d="M233,50.63V29.76c0-2.81-.66-4.55-3-4.55-3.07,0-6.48,3.95-6.48,9.43v16h-10V29.76c0-2.68-.6-4.55-3-4.55-3.27,0-6.55,4.15-6.55,9.43v16H193.71V17.38h9.57a41.83,41.83,0,0,1-.41,5.29h.07a11.93,11.93,0,0,1,10.64-6c5.08,0,8,2.47,9.09,6a11.62,11.62,0,0,1,10.5-6c6.49,0,10,3.68,10,11.17V50.63Z" transform="translate(-1.72 -1)"/><path class="cls-3" d="M10.76,75.14a6.22,6.22,0,0,1-2.29.44c-2.48,0-4.34-1.34-4.34-4.13a5.51,5.51,0,0,1,5.75-5.84,6.22,6.22,0,0,1,2.46.55l.53-1.57a8.09,8.09,0,0,0-3-.59,7.27,7.27,0,0,0-7.65,7.36c0,4,2.6,5.82,6,5.82a8,8,0,0,0,2.34-.34l.24-1.7ZM12.18,77h1.71l1-4.58c.24-1.15,1.28-3.45,3.4-3.45a2.71,2.71,0,0,1,.73.18l.38-1.51a2.21,2.21,0,0,0-.78-.16,3.59,3.59,0,0,0-3.18,1.69h0l.29-1.48h-1.6c-.07.55-.18,1-.26,1.43L12.18,77Zm8.92-5.55A3.23,3.23,0,0,1,24,68.82a1.78,1.78,0,0,1,2,1.88,6.38,6.38,0,0,1-.05.71Zm5.26,3.82a7,7,0,0,1-2.63.57c-1.66,0-2.86-.57-2.86-2.52a2.94,2.94,0,0,1,.05-.59h6.55a9.07,9.07,0,0,0,.17-1.7,3.23,3.23,0,0,0-3.51-3.55c-3.28,0-5.09,3-5.09,5.54,0,3.29,2,4.2,4.29,4.2a11.69,11.69,0,0,0,2.76-.38l.27-1.57Zm3.85-5.62a5.87,5.87,0,0,1,2.85-.79c1.26,0,2.13.51,2.13,1.85a2.7,2.7,0,0,1-.09.6c-.42,0-.87-.06-1.24-.06-3.12,0-5.51.75-5.51,3.4,0,1.75,1.41,2.57,3,2.57a3.4,3.4,0,0,0,3-1.77h0L34.08,77h1.59c.24-1.64.62-3.37,1-5.11a8.25,8.25,0,0,0,.16-1.46c0-2.22-1.81-3-3.69-3a9.68,9.68,0,0,0-2.59.47l-.31,1.7Zm4.53,2.88c-.2,1.57-1.3,3.31-3,3.31-.82,0-1.53-.44-1.53-1.26,0-1.7,2-2.05,3.24-2.05ZM38.66,69h2.05l-.81,3.89a13.41,13.41,0,0,0-.32,2.19,2,2,0,0,0,2.22,2.06,5.91,5.91,0,0,0,1.68-.2l.26-1.42a3.52,3.52,0,0,1-1.21.24c-.87,0-1.24-.35-1.24-1A13.88,13.88,0,0,1,41.56,73l.86-4H45l.27-1.39H42.71l.59-2.79-1.84.64L41,67.65H38.92L38.66,69ZM45,77h1.72l2-9.31H46.93L45,77Zm4.65-13.32H47.68l-.4,1.93h1.93l.4-1.93ZM49.47,77h1.71l1-4.69c.24-1.15,1.28-3.45,3.39-3.45a1.61,1.61,0,0,1,1.7,1.7,6.71,6.71,0,0,1-.09.88L56,77h1.72l1-4.91A8.79,8.79,0,0,0,59,70.36c0-2-1.3-2.92-3.11-2.92a3.59,3.59,0,0,0-3.17,1.69h0L53,67.65h-1.6c-.08.55-.18,1-.26,1.43L49.47,77Zm19.14-9.31-.32,1.65h0a3.1,3.1,0,0,0-3-1.86c-2.68,0-4.69,2.37-4.69,5.8A3.54,3.54,0,0,0,64,77a3.15,3.15,0,0,0,2.77-1.06h0l-.24,1a3.19,3.19,0,0,1-3.25,2.72,6.88,6.88,0,0,1-3-.82l-.39,1.53a8.39,8.39,0,0,0,3.13.68c2.86,0,4.6-1.54,5-3.38l2.13-10Zm-6.27,5.5c0-1.79,1-4.33,3-4.33a2.31,2.31,0,0,1,2.32,2.54c0,3-1.7,4.22-3.19,4.22a2.17,2.17,0,0,1-2.08-2.43Zm22.41,2a6.16,6.16,0,0,1-2.28.44c-2.48,0-4.35-1.34-4.35-4.13a5.51,5.51,0,0,1,5.75-5.84,6.31,6.31,0,0,1,2.47.55l.53-1.57a8.09,8.09,0,0,0-3-.59,7.26,7.26,0,0,0-7.65,7.36c0,4,2.59,5.82,6,5.82a8,8,0,0,0,2.33-.34l.24-1.7ZM86.39,73c0,2.76,1.68,4.14,4.24,4.14,3.34,0,5.2-2.52,5.2-5.67a3.8,3.8,0,0,0-4.13-4.07c-3.41,0-5.31,2.5-5.31,5.6Zm1.83.13c0-1.94,1.13-4.35,3.41-4.35A2.45,2.45,0,0,1,94,71.51c0,2.09-1.46,4.29-3.39,4.29a2.32,2.32,0,0,1-2.39-2.63ZM96.87,77h1.71l1-4.69c.24-1.15,1.28-3.45,3.39-3.45a1.61,1.61,0,0,1,1.7,1.7,5.34,5.34,0,0,1-.09.88L103.42,77h1.72l1-4.91a8.79,8.79,0,0,0,.22-1.69c0-2-1.3-2.92-3.11-2.92a3.59,3.59,0,0,0-3.17,1.69h0l.29-1.48h-1.6c-.07.55-.18,1-.26,1.43L96.87,77Zm18.4-9.16a7.11,7.11,0,0,0-2.41-.36c-3.23,0-5.08,2.7-5.08,5.85,0,2.58,1.66,3.89,4.13,3.89A6.32,6.32,0,0,0,113.7,77l.31-1.58a5.89,5.89,0,0,1-1.88.42c-1.65,0-2.52-1-2.52-2.76,0-2.26,1.37-4.22,3.58-4.22a3.54,3.54,0,0,1,1.66.46l.42-1.48ZM115.21,77h1.72l1-4.58c.24-1.15,1.28-3.45,3.4-3.45a2.62,2.62,0,0,1,.73.18l.38-1.51a2.21,2.21,0,0,0-.78-.16,3.59,3.59,0,0,0-3.18,1.69h0l.29-1.48h-1.61c-.07.55-.18,1-.25,1.43L115.21,77Zm8.93-5.55A3.21,3.21,0,0,1,127,68.82a1.79,1.79,0,0,1,2,1.88,4.74,4.74,0,0,1-.06.71Zm5.25,3.82a7,7,0,0,1-2.63.57c-1.66,0-2.86-.57-2.86-2.52a3.92,3.92,0,0,1,0-.59h6.56a10,10,0,0,0,.16-1.7,3.23,3.23,0,0,0-3.5-3.55c-3.29,0-5.1,3-5.1,5.54,0,3.29,2,4.2,4.29,4.2a11.62,11.62,0,0,0,2.76-.38l.27-1.57ZM132,69h2.05l-.81,3.89a13.41,13.41,0,0,0-.32,2.19,2,2,0,0,0,2.22,2.06,5.87,5.87,0,0,0,1.68-.2l.26-1.42a3.52,3.52,0,0,1-1.21.24c-.87,0-1.24-.35-1.24-1a12.38,12.38,0,0,1,.28-1.75l.85-4h2.58l.27-1.39h-2.56l.59-2.79-1.84.64-.46,2.15h-2.08L132,69Zm8.47,2.37a3.22,3.22,0,0,1,2.85-2.59,1.78,1.78,0,0,1,2,1.88,6.38,6.38,0,0,1,0,.71Zm5.26,3.82a7,7,0,0,1-2.63.57c-1.66,0-2.87-.57-2.87-2.52a3,3,0,0,1,.06-.59h6.55A10,10,0,0,0,147,71a3.23,3.23,0,0,0-3.51-3.55c-3.28,0-5.09,3-5.09,5.54,0,3.29,2,4.2,4.29,4.2a11.54,11.54,0,0,0,2.75-.38l.28-1.57ZM152.55,77h1.83l1.11-5.09h1.83c3.43,0,5.27-1.81,5.27-4.33s-2.19-3.32-4.08-3.32h-3.18L152.55,77Zm4.28-11.13h.95c1.53,0,2.88.22,2.88,2,0,2.06-1.95,2.44-3.83,2.44h-1l1-4.43ZM162.41,73c0,2.76,1.68,4.14,4.24,4.14,3.34,0,5.2-2.52,5.2-5.67a3.8,3.8,0,0,0-4.13-4.07c-3.41,0-5.31,2.5-5.31,5.6Zm1.83.13c0-1.94,1.13-4.35,3.41-4.35A2.45,2.45,0,0,1,170,71.51c0,2.09-1.46,4.29-3.39,4.29a2.32,2.32,0,0,1-2.39-2.63ZM179.35,68a6.61,6.61,0,0,0-2.43-.51c-1.53,0-3.5.76-3.5,2.73,0,2.36,3.17,2.59,3.17,4.18,0,1.06-1,1.45-2,1.45a5.86,5.86,0,0,1-2.14-.53l-.32,1.47a6.76,6.76,0,0,0,2.72.44c1.46,0,3.52-.73,3.52-3,0-2.59-3.18-2.67-3.18-4.26,0-.93,1-1.13,1.74-1.13a4.56,4.56,0,0,1,1.86.48l.51-1.35ZM186,68a6.52,6.52,0,0,0-2.42-.51c-1.54,0-3.51.76-3.51,2.73,0,2.36,3.18,2.59,3.18,4.18,0,1.06-1,1.45-2,1.45a5.81,5.81,0,0,1-2.13-.53l-.33,1.47a6.76,6.76,0,0,0,2.72.44c1.46,0,3.52-.73,3.52-3,0-2.59-3.17-2.67-3.17-4.26,0-.93,1-1.13,1.73-1.13a4.52,4.52,0,0,1,1.86.48L186,68Zm.3,9H188l2-9.31h-1.71l-2,9.31Zm4.65-13.32H189l-.4,1.93h1.94l.4-1.93Zm2.39,9.71c0-2.3,1.33-4.53,3.34-4.53a2,2,0,0,1,2.08,2.3c0,2.32-1.15,4.68-3.1,4.68a2.27,2.27,0,0,1-2.32-2.45ZM190.79,77h1.61l.31-1.55h0c.49,1,1.15,1.77,3.14,1.77,3.1,0,4.69-2.79,4.69-6.2a3.25,3.25,0,0,0-3.33-3.54,3.56,3.56,0,0,0-2.95,1.22h0l1.15-5.39H193.7L190.79,77Zm10.81,0h1.71l2-9.31h-1.72l-2,9.31Zm4.65-13.32h-1.93l-.4,1.93h1.93l.4-1.93Zm0,13.32h1.71l2.9-13.69h-1.71L206.22,77Zm4.61,0h1.72l2-9.31h-1.71l-2,9.31Zm4.66-13.32h-1.94l-.4,1.93h1.94l.4-1.93Zm.31,5.4h2l-.8,3.89a13.4,13.4,0,0,0-.33,2.19,2,2,0,0,0,2.23,2.06,6,6,0,0,0,1.68-.2l.25-1.42a3.51,3.51,0,0,1-1.2.24c-.88,0-1.24-.35-1.24-1A13.88,13.88,0,0,1,218.7,73l.86-4h2.57l.28-1.39h-2.56l.59-2.79-1.85.64-.46,2.15h-2.08L215.8,69ZM222.1,77h1.71l2-9.31h-1.71l-2,9.31Zm4.65-13.32h-1.93l-.41,1.93h1.94l.4-1.93Zm2.14,7.77a3.21,3.21,0,0,1,2.84-2.59,1.78,1.78,0,0,1,2,1.88,4.63,4.63,0,0,1,0,.71Zm5.25,3.82a7,7,0,0,1-2.63.57c-1.66,0-2.86-.57-2.86-2.52a3.92,3.92,0,0,1,0-.59h6.56a10,10,0,0,0,.16-1.7,3.23,3.23,0,0,0-3.5-3.55c-3.29,0-5.1,3-5.1,5.54,0,3.29,2,4.2,4.29,4.2a11.69,11.69,0,0,0,2.76-.38l.27-1.57ZM242.76,68a6.61,6.61,0,0,0-2.43-.51c-1.53,0-3.5.76-3.5,2.73,0,2.36,3.17,2.59,3.17,4.18,0,1.06-1,1.45-1.95,1.45a5.86,5.86,0,0,1-2.14-.53l-.33,1.47a6.83,6.83,0,0,0,2.72.44c1.46,0,3.53-.73,3.53-3,0-2.59-3.18-2.67-3.18-4.26,0-.93,1-1.13,1.73-1.13a4.61,4.61,0,0,1,1.87.48l.51-1.35Z" transform="translate(-1.72 -1)"/><polyline class="cls-1" points="54.55 49.61 41.08 49.61 35.03 32.63 44.05 24.7 32.26 24.71 27.27 10.8 22.38 24.7 10.51 24.7 19.54 32.63 13.49 49.61 0 49.61 17.58 0.2 36.93 0.2"/></svg>