<?xml version="1.0" encoding="utf-8"?>
<!-- Generator: Adobe Illustrator 21.1.0, SVG Export Plug-In . SVG Version: 6.00 Build 0)  -->
<svg version="1.1" id="iconmonstr" xmlns="http://www.w3.org/2000/svg" xmlns:xlink="http://www.w3.org/1999/xlink" x="0px" y="0px"
	 viewBox="0 0 48 44" style="fill:#FFFFFF; " xml:space="preserve">
<g>
	<path id="smartphone-3" stroke="#ec1c23" d="M36.5,3.7c0-2-1.6-3.7-3.6-3.7H15.1c-2,0-3.6,1.6-3.6,3.7v36.7c0,2,1.6,3.7,3.6,3.7h17.8
		c2,0,3.6-1.6,3.6-3.7V3.7z M21.3,3.7h5.3c0.5,0,0.9,0.4,0.9,0.9c0,0.5-0.4,0.9-0.9,0.9h-5.3c-0.5,0-0.9-0.4-0.9-0.9
		C20.4,4.1,20.8,3.7,21.3,3.7z M24,40.3c-1,0-1.8-0.8-1.8-1.8s0.8-1.8,1.8-1.8c1,0,1.8,0.8,1.8,1.8S25,40.3,24,40.3z M32.9,34.8
		H15.1V9.1h17.8V34.8z"/>
</g>
</svg>
